<svg xmlns="http://www.w3.org/2000/svg" viewBox="0 0 233 84" width="233" height="84" fill="none" role="img" aria-label="koku">
  <path d="M55 0V757H205V272L149 290L390 546H575L377 326L574 0H404L239 277L326 299L159 117L205 204V0Z" transform="translate(0.000 75.700) scale(0.100000 -0.100000)" fill="#1E1B2E"/>
  <path d="M326 -12Q245 -12 178.5 25.0Q112 62 72.5 126.5Q33 191 33 273Q33 356 72.5 420.0Q112 484 178.5 521.0Q245 558 326 558Q407 558 473.0 521.0Q539 484 578.5 420.0Q618 356 618 273Q618 191 578.5 126.5Q539 62 473.0 25.0Q407 -12 326 -12ZM326 123Q367 123 397.5 142.0Q428 161 445.5 195.0Q463 229 463 273Q463 317 445.5 350.5Q428 384 397.5 403.5Q367 423 326 423Q285 423 254.0 403.5Q223 384 205.5 350.5Q188 317 188 273Q188 229 205.5 195.0Q223 161 254.0 142.0Q285 123 326 123Z" transform="translate(56.400 75.700) scale(0.100000 -0.100000)" fill="#1E1B2E"/>
  <path d="M55 0V757H205V272L149 290L390 546H575L377 326L574 0H404L239 277L326 299L159 117L205 204V0Z" transform="translate(119.300 75.700) scale(0.100000 -0.100000)" fill="#1E1B2E"/>
  <path d="M251 -12Q185 -12 138.5 16.5Q92 45 68.0 96.0Q44 147 44 215V546H194V227Q194 196 206.5 172.5Q219 149 242.0 136.0Q265 123 294 123Q324 123 346.5 136.0Q369 149 381.5 172.5Q394 196 394 227V546H544V0H404V108L412 84Q393 35 350.5 11.5Q308 -12 251 -12Z" transform="translate(175.700 75.700) scale(0.100000 -0.100000)" fill="#1E1B2E"/>
</svg>
